<svg width="206" height="231" viewBox="0 0 206 231" fill="none" xmlns="http://www.w3.org/2000/svg">
<path d="M143.143 84C143.143 96.1503 133.293 106 121.143 106C108.992 106 99.1426 96.1503 99.1426 84C99.1426 71.8497 108.992 62 121.143 62C133.293 62 143.143 71.8497 143.143 84Z" fill="#FFC131"/>
<ellipse cx="84.1426" cy="147.5" rx="22" ry="22.5" fill="#24C8DB"/>
<path fill-rule="evenodd" clip-rule="evenodd" d="M166.738 154.548C157.86 168.687 141.91 178 123.643 178C97.2452 178 75.6427 156.397 75.6427 130C75.6427 103.603 97.2452 82 123.643 82C141.91 82 157.86 91.3129 166.738 105.452L192.5 105.452C192.5 105.452 192.5 105.452 192.5 105.452L192.5 154.548C192.5 154.548 192.5 154.548 192.5 154.548L166.738 154.548Z" fill="url(#paint0_linear)"/>
<path fill-rule="evenodd" clip-rule="evenodd" d="M39.2619 154.548C48.1398 168.687 64.0902 178 82.3571 178C108.755 178 130.357 156.397 130.357 130C130.357 103.603 108.755 82 82.3571 82C64.0902 82 48.1398 91.3129 39.2619 105.452H13.5C13.5 105.452 13.5 105.452 13.5 105.452L13.5 154.548C13.5 154.548 13.5 154.548 13.5 154.548H39.2619Z" fill="url(#paint1_linear)"/>
<defs>
<linearGradient id="paint0_linear" x1="75.6427" y1="82" x2="192.5" y2="178" gradientUnits="userSpaceOnUse">
<stop stop-color="#7BC5FB"/>
<stop offset="1" stop-color="#1E86F0"/>
</linearGradient>
<linearGradient id="paint1_linear" x1="130.357" y1="82" x2="13.5" y2="178" gradientUnits="userSpaceOnUse">
<stop stop-color="#FFC131"/>
<stop offset="1" stop-color="#F77B1C"/>
</linearGradient>
</defs>
</svg>